# This file uses centimeters as units for non-parametric coordinates.

mtllib Beveled Square.mtl
g default
v -0.488583 -0.407412 0.350015
v -0.456070 -0.456070 0.350015
v -0.407412 -0.488583 0.350015
v -0.350015 -0.500000 0.350015
v -0.350015 -0.488583 0.407412
v -0.350015 -0.456070 0.456070
v -0.350015 -0.407412 0.488583
v -0.350015 -0.350015 0.500000
v -0.407412 -0.350015 0.488583
v -0.456070 -0.350015 0.456070
v -0.488583 -0.350015 0.407412
v -0.500000 -0.350015 0.350015
v 0.407412 -0.488583 0.350015
v 0.456070 -0.456070 0.350015
v 0.488583 -0.407412 0.350015
v 0.500000 -0.350015 0.350015
v 0.488583 -0.350015 0.407412
v 0.456070 -0.350015 0.456070
v 0.407412 -0.350015 0.488583
v 0.350015 -0.350015 0.500000
v 0.350015 -0.407412 0.488583
v 0.350015 -0.456070 0.456070
v 0.350015 -0.488583 0.407412
v 0.350015 -0.500000 0.350015
v -0.407412 0.488583 0.350015
v -0.456070 0.456070 0.350015
v -0.488583 0.407412 0.350015
v -0.500000 0.350015 0.350015
v -0.488583 0.350015 0.407412
v -0.456070 0.350015 0.456070
v -0.407412 0.350015 0.488583
v -0.350015 0.350015 0.500000
v -0.350015 0.407412 0.488583
v -0.350015 0.456070 0.456070
v -0.350015 0.488583 0.407412
v -0.350015 0.500000 0.350015
v 0.488583 0.407412 0.350015
v 0.456070 0.456070 0.350015
v 0.407412 0.488583 0.350015
v 0.350015 0.500000 0.350015
v 0.350015 0.488583 0.407412
v 0.350015 0.456070 0.456070
v 0.350015 0.407412 0.488583
v 0.350015 0.350015 0.500000
v 0.407412 0.350015 0.488583
v 0.456070 0.350015 0.456070
v 0.488583 0.350015 0.407412
v 0.500000 0.350015 0.350015
v -0.407412 0.350015 -0.488583
v -0.456070 0.350015 -0.456070
v -0.488583 0.350015 -0.407412
v -0.500000 0.350015 -0.350015
v -0.488583 0.407412 -0.350015
v -0.456070 0.456070 -0.350015
v -0.407412 0.488583 -0.350015
v -0.350015 0.500000 -0.350015
v -0.350015 0.488583 -0.407412
v -0.350015 0.456070 -0.456070
v -0.350015 0.407412 -0.488583
v -0.350015 0.350015 -0.500000
v 0.488583 0.350015 -0.407412
v 0.456070 0.350015 -0.456070
v 0.407412 0.350015 -0.488583
v 0.350015 0.350015 -0.500000
v 0.350015 0.407412 -0.488583
v 0.350015 0.456070 -0.456070
v 0.350015 0.488583 -0.407412
v 0.350015 0.500000 -0.350015
v 0.407412 0.488583 -0.350015
v 0.456070 0.456070 -0.350015
v 0.488583 0.407412 -0.350015
v 0.500000 0.350015 -0.350015
v -0.407412 -0.488583 -0.350015
v -0.456070 -0.456070 -0.350015
v -0.488583 -0.407412 -0.350015
v -0.500000 -0.350015 -0.350015
v -0.488583 -0.350015 -0.407412
v -0.456070 -0.350015 -0.456070
v -0.407412 -0.350015 -0.488583
v -0.350015 -0.350015 -0.500000
v -0.350015 -0.407412 -0.488583
v -0.350015 -0.456070 -0.456070
v -0.350015 -0.488583 -0.407412
v -0.350015 -0.500000 -0.350015
v 0.488583 -0.407412 -0.350015
v 0.456070 -0.456070 -0.350015
v 0.407412 -0.488583 -0.350015
v 0.350015 -0.500000 -0.350015
v 0.350015 -0.488583 -0.407412
v 0.350015 -0.456070 -0.456070
v 0.350015 -0.407412 -0.488583
v 0.350015 -0.350015 -0.500000
v 0.407412 -0.350015 -0.488583
v 0.456070 -0.350015 -0.456070
v 0.488583 -0.350015 -0.407412
v 0.500000 -0.350015 -0.350015
v -0.480871 -0.401785 0.401785
v -0.451325 -0.451325 0.393968
v -0.401785 -0.480871 0.401785
v -0.393968 -0.451325 0.451325
v -0.401785 -0.401785 0.480871
v -0.451325 -0.393968 0.451325
v -0.436579 -0.436579 0.436579
v 0.401785 -0.480871 0.401785
v 0.451325 -0.451325 0.393968
v 0.480871 -0.401785 0.401785
v 0.451325 -0.393968 0.451325
v 0.401785 -0.401785 0.480871
v 0.393968 -0.451325 0.451325
v 0.436579 -0.436579 0.436579
v -0.401785 0.480871 0.401785
v -0.451325 0.451325 0.393968
v -0.480871 0.401785 0.401785
v -0.451325 0.393968 0.451325
v -0.401785 0.401785 0.480871
v -0.393968 0.451325 0.451325
v -0.436579 0.436579 0.436579
v 0.480871 0.401785 0.401785
v 0.451325 0.451325 0.393968
v 0.401785 0.480871 0.401785
v 0.393968 0.451325 0.451325
v 0.401785 0.401785 0.480871
v 0.451325 0.393968 0.451325
v 0.436579 0.436579 0.436579
v -0.401785 0.401785 -0.480871
v -0.451325 0.393968 -0.451325
v -0.480871 0.401785 -0.401785
v -0.451325 0.451325 -0.393968
v -0.401785 0.480871 -0.401785
v -0.393968 0.451325 -0.451325
v -0.436579 0.436579 -0.436579
v 0.480871 0.401785 -0.401785
v 0.451325 0.393968 -0.451325
v 0.401785 0.401785 -0.480871
v 0.393968 0.451325 -0.451325
v 0.401785 0.480871 -0.401785
v 0.451325 0.451325 -0.393968
v 0.436579 0.436579 -0.436579
v -0.401785 -0.480871 -0.401785
v -0.451325 -0.451325 -0.393968
v -0.480871 -0.401785 -0.401785
v -0.451325 -0.393968 -0.451325
v -0.401785 -0.401785 -0.480871
v -0.393968 -0.451325 -0.451325
v -0.436579 -0.436579 -0.436579
v 0.480871 -0.401785 -0.401785
v 0.451325 -0.451325 -0.393968
v 0.401785 -0.480871 -0.401785
v 0.393968 -0.451325 -0.451325
v 0.401785 -0.401785 -0.480871
v 0.451325 -0.393968 -0.451325
v 0.436579 -0.436579 -0.436579
vt 0.412496 0.962504
vt 0.412496 0.037496
vt 0.587504 0.962504
vt 0.662496 0.037496
vt 0.412496 0.212504
vt 0.587504 0.212504
vt 0.662496 0.212504
vt 0.162496 0.037496
vt 0.412496 0.462504
vt 0.587504 0.462504
vt 0.837504 0.212504
vt 0.837504 0.037496
vt 0.587504 0.787496
vt 0.412496 0.712504
vt 0.587504 0.712504
vt 0.587504 0.037496
vt 0.412496 0.287496
vt 0.587504 0.287496
vt 0.412496 0.537496
vt 0.587504 0.537496
vt 0.412496 0.787496
vt 0.337504 0.037496
vt 0.337504 0.212504
vt 0.162496 0.212504
vt 0.343297 0.018756
vt 0.375000 0.974005
vt 0.349005 -0.000000
vt 0.393557 0.968297
vt 0.406703 0.981440
vt 0.400995 -0.000000
vt 0.400995 1.000000
vt 0.406703 0.018764
vt 0.393563 0.036544
vt 0.375000 0.036147
vt 0.356445 0.036552
vt 0.606438 0.968297
vt 0.650995 -0.000000
vt 0.625000 0.974005
vt 0.656703 0.018763
vt 0.643555 0.036544
vt 0.624989 0.036147
vt 0.606437 0.036552
vt 0.593297 0.018757
vt 0.599005 1.000000
vt 0.599005 -0.000000
vt 0.593297 0.981444
vt 0.393758 0.281691
vt 0.349005 0.250000
vt 0.375000 0.275995
vt 0.343309 0.231236
vt 0.356580 0.213447
vt 0.375274 0.213837
vt 0.393903 0.213427
vt 0.411565 0.231100
vt 0.411164 0.249724
vt 0.411561 0.268415
vt 0.656691 0.231243
vt 0.625000 0.275995
vt 0.650995 0.250000
vt 0.606235 0.281690
vt 0.588448 0.268416
vt 0.588838 0.249721
vt 0.588428 0.231092
vt 0.606104 0.213434
vt 0.624730 0.213835
vt 0.643419 0.213439
vt 0.393757 0.531703
vt 0.125000 0.224005
vt 0.375000 0.525995
vt 0.143556 0.218297
vt 0.156703 0.231438
vt 0.375000 0.474005
vt 0.150995 0.250000
vt 0.393764 0.468297
vt 0.411544 0.481442
vt 0.411147 0.500006
vt 0.411552 0.518558
vt 0.856440 0.218297
vt 0.625000 0.525995
vt 0.875000 0.224005
vt 0.606236 0.531703
vt 0.588456 0.518558
vt 0.588853 0.499994
vt 0.588448 0.481442
vt 0.606243 0.468297
vt 0.849005 0.250000
vt 0.625000 0.474005
vt 0.843297 0.231443
vt 0.393756 0.781703
vt 0.150995 -0.000000
vt 0.375000 0.775995
vt 0.156703 0.018557
vt 0.143560 0.031703
vt 0.375000 0.724005
vt 0.125000 0.025995
vt 0.393764 0.718297
vt 0.411544 0.731442
vt 0.411147 0.750006
vt 0.411552 0.768558
vt 0.843297 0.018562
vt 0.625000 0.775995
vt 0.849005 -0.000000
vt 0.606237 0.781703
vt 0.588456 0.768558
vt 0.588853 0.749994
vt 0.588448 0.731442
vt 0.606243 0.718297
vt 0.875000 0.025995
vt 0.625000 0.724005
vt 0.856444 0.031703
vt 0.358026 0.019663
vt 0.375000 0.986581
vt 0.361581 -0.000000
vt 0.391980 0.983048
vt 0.388419 -0.000000
vt 0.388419 1.000000
vt 0.391957 0.019663
vt 0.375027 0.020748
vt 0.375000 1.000000
vt 0.375000 0.000000
vt 0.608048 0.983020
vt 0.638419 -0.000000
vt 0.625000 0.986581
vt 0.641954 0.019663
vt 0.625021 0.020748
vt 0.608023 0.019663
vt 0.611581 1.000000
vt 0.611581 -0.000000
vt 0.625000 0.000000
vt 0.625000 1.000000
vt 0.394674 0.266807
vt 0.361581 0.250000
vt 0.375000 0.263419
vt 0.358210 0.230327
vt 0.375662 0.229210
vt 0.394846 0.230164
vt 0.395789 0.249340
vt 0.375000 0.250000
vt 0.641808 0.230326
vt 0.625000 0.263419
vt 0.638419 0.250000
vt 0.605327 0.266789
vt 0.604211 0.249335
vt 0.605166 0.230152
vt 0.624343 0.229211
vt 0.625000 0.250000
vt 0.394663 0.516975
vt 0.125000 0.236581
vt 0.375000 0.513419
vt 0.141980 0.233048
vt 0.375000 0.486581
vt 0.138419 0.250000
vt 0.394663 0.483045
vt 0.395749 0.499976
vt 0.125000 0.250000
vt 0.375000 0.500000
vt 0.858048 0.233020
vt 0.625000 0.513419
vt 0.875000 0.236581
vt 0.605337 0.516955
vt 0.604251 0.500024
vt 0.605337 0.483025
vt 0.861581 0.250000
vt 0.625000 0.486581
vt 0.625000 0.500000
vt 0.875000 0.250000
vt 0.394663 0.766975
vt 0.138419 -0.000000
vt 0.375000 0.763419
vt 0.141952 0.016980
vt 0.375000 0.736581
vt 0.125000 0.013419
vt 0.394663 0.733045
vt 0.395748 0.749976
vt 0.125000 0.000000
vt 0.375000 0.750000
vt 0.858020 0.016952
vt 0.625000 0.763419
vt 0.861581 -0.000000
vt 0.605337 0.766955
vt 0.604252 0.750024
vt 0.605337 0.733025
vt 0.875000 0.013419
vt 0.625000 0.736581
vt 0.625000 0.750000
vt 0.875000 0.000000
vn -0.014872 -0.999779 0.014872
vn -0.381648 -0.924236 0.011537
vn -0.381648 -0.924236 -0.011537
vn -0.014872 -0.999779 -0.014872
vn -0.707066 -0.707066 0.010689
vn -0.707066 -0.707066 -0.010689
vn -0.924236 -0.381648 0.011537
vn -0.924236 -0.381648 -0.011537
vn -0.999779 -0.014872 0.014872
vn -0.999779 -0.014872 -0.014872
vn -0.014872 -0.014872 0.999779
vn -0.011537 -0.381648 0.924236
vn 0.011537 -0.381648 0.924236
vn 0.014872 -0.014872 0.999779
vn -0.010689 -0.707066 0.707066
vn 0.010689 -0.707066 0.707066
vn -0.011537 -0.924236 0.381648
vn 0.011537 -0.924236 0.381648
vn 0.014872 -0.999779 0.014872
vn -0.924236 -0.011537 0.381648
vn -0.924236 0.011537 0.381648
vn -0.999779 0.014872 0.014872
vn -0.707066 -0.010689 0.707066
vn -0.707066 0.010689 0.707066
vn -0.381648 -0.011537 0.924236
vn -0.381648 0.011537 0.924236
vn -0.014872 0.014872 0.999779
vn 0.999779 -0.014872 0.014872
vn 0.924236 -0.381648 0.011537
vn 0.924236 -0.381648 -0.011537
vn 0.999779 -0.014872 -0.014872
vn 0.707066 -0.707066 0.010689
vn 0.707066 -0.707066 -0.010689
vn 0.381648 -0.924236 0.011537
vn 0.381648 -0.924236 -0.011537
vn 0.014872 -0.999779 -0.014872
vn 0.381648 -0.011537 0.924236
vn 0.381648 0.011537 0.924236
vn 0.014872 0.014872 0.999779
vn 0.707066 -0.010689 0.707066
vn 0.707066 0.010689 0.707066
vn 0.924236 -0.011537 0.381648
vn 0.924236 0.011537 0.381648
vn 0.999779 0.014872 0.014872
vn -0.924236 0.381648 0.011537
vn -0.924236 0.381648 -0.011537
vn -0.999779 0.014872 -0.014872
vn -0.707066 0.707066 0.010689
vn -0.707066 0.707066 -0.010689
vn -0.381648 0.924236 0.011537
vn -0.381648 0.924236 -0.011537
vn -0.014872 0.999779 0.014872
vn -0.014872 0.999779 -0.014872
vn -0.011537 0.924236 0.381648
vn 0.011537 0.924236 0.381648
vn 0.014872 0.999779 0.014872
vn -0.010689 0.707066 0.707066
vn 0.010689 0.707066 0.707066
vn -0.011537 0.381648 0.924236
vn 0.011537 0.381648 0.924236
vn 0.381648 0.924236 0.011537
vn 0.381648 0.924236 -0.011537
vn 0.014872 0.999779 -0.014872
vn 0.707066 0.707066 0.010689
vn 0.707066 0.707066 -0.010689
vn 0.924236 0.381648 0.011537
vn 0.924236 0.381648 -0.011537
vn 0.999779 0.014872 -0.014872
vn -0.924236 0.011537 -0.381648
vn -0.924236 -0.011537 -0.381648
vn -0.707066 0.010689 -0.707066
vn -0.707066 -0.010689 -0.707066
vn -0.381648 0.011537 -0.924236
vn -0.381648 -0.011537 -0.924236
vn -0.014872 0.014872 -0.999779
vn -0.014872 -0.014872 -0.999779
vn -0.011537 0.381648 -0.924236
vn 0.011537 0.381648 -0.924236
vn 0.014872 0.014872 -0.999779
vn -0.010689 0.707066 -0.707066
vn 0.010689 0.707066 -0.707066
vn -0.011537 0.924236 -0.381648
vn 0.011537 0.924236 -0.381648
vn 0.381648 0.011537 -0.924236
vn 0.381648 -0.011537 -0.924236
vn 0.014872 -0.014872 -0.999779
vn 0.707066 0.010689 -0.707066
vn 0.707066 -0.010689 -0.707066
vn 0.924236 0.011537 -0.381648
vn 0.924236 -0.011537 -0.381648
vn -0.011537 -0.924236 -0.381648
vn 0.011537 -0.924236 -0.381648
vn -0.010689 -0.707066 -0.707066
vn 0.010689 -0.707066 -0.707066
vn -0.011537 -0.381648 -0.924236
vn 0.011537 -0.381648 -0.924236
vn -0.878772 -0.337462 0.337461
vn -0.673146 -0.673146 0.306186
vn -0.337461 -0.878772 0.337462
vn -0.306186 -0.673146 0.673146
vn -0.337462 -0.337461 0.878772
vn -0.673146 -0.306186 0.673146
vn -0.577350 -0.577350 0.577350
vn 0.337461 -0.878772 0.337461
vn 0.673146 -0.673146 0.306186
vn 0.878772 -0.337461 0.337461
vn 0.673146 -0.306186 0.673146
vn 0.337461 -0.337461 0.878772
vn 0.306186 -0.673146 0.673146
vn 0.577350 -0.577350 0.577350
vn -0.337461 0.878772 0.337461
vn -0.673146 0.673146 0.306186
vn -0.878772 0.337461 0.337461
vn -0.673146 0.306186 0.673146
vn -0.337461 0.337461 0.878772
vn -0.306186 0.673146 0.673146
vn -0.577350 0.577350 0.577350
vn 0.878772 0.337462 0.337461
vn 0.673146 0.673146 0.306186
vn 0.337461 0.878772 0.337462
vn 0.306186 0.673146 0.673146
vn 0.337462 0.337461 0.878772
vn 0.673146 0.306186 0.673146
vn 0.577350 0.577350 0.577350
vn -0.337462 0.337461 -0.878772
vn -0.673146 0.306186 -0.673146
vn -0.878772 0.337462 -0.337461
vn -0.673146 0.673146 -0.306186
vn -0.337461 0.878772 -0.337462
vn -0.306186 0.673146 -0.673146
vn -0.577350 0.577350 -0.577350
vn 0.878772 0.337461 -0.337461
vn 0.673146 0.306186 -0.673146
vn 0.337461 0.337461 -0.878772
vn 0.306186 0.673146 -0.673146
vn 0.337461 0.878772 -0.337461
vn 0.673146 0.673146 -0.306186
vn 0.577350 0.577350 -0.577350
vn -0.337461 -0.878772 -0.337461
vn -0.673146 -0.673146 -0.306186
vn -0.878772 -0.337461 -0.337461
vn -0.673146 -0.306186 -0.673146
vn -0.337461 -0.337461 -0.878772
vn -0.306186 -0.673146 -0.673146
vn -0.577350 -0.577350 -0.577350
vn 0.878772 -0.337462 -0.337461
vn 0.673146 -0.673146 -0.306186
vn 0.337461 -0.878772 -0.337462
vn 0.306186 -0.673146 -0.673146
vn 0.337462 -0.337461 -0.878772
vn 0.673146 -0.306186 -0.673146
vn 0.577350 -0.577350 -0.577350
s 1
g pCube1
usemtl initialShadingGroup
f 4/1/1 3/28/2 73/89/3 84/21/4
f 3/28/2 2/26/5 74/91/6 73/89/3
f 2/27/5 1/25/7 75/92/8 74/90/6
f 1/25/7 12/22/9 76/8/10 75/92/8
f 8/2/11 7/32/12 21/43/13 20/16/14
f 7/32/12 6/30/15 22/45/16 21/43/13
f 6/31/15 5/29/17 23/46/18 22/44/16
f 5/29/17 4/1/1 24/3/19 23/46/18
f 12/22/9 11/35/20 29/51/21 28/23/22
f 11/35/20 10/34/23 30/52/24 29/51/21
f 10/34/23 9/33/25 31/53/26 30/52/24
f 9/33/25 8/2/11 32/5/27 31/53/26
f 16/4/28 15/39/29 85/100/30 96/12/31
f 15/39/29 14/37/32 86/102/33 85/100/30
f 14/38/32 13/36/34 87/103/35 86/101/33
f 13/36/34 24/3/19 88/13/36 87/103/35
f 20/16/14 19/42/37 45/64/38 44/6/39
f 19/42/37 18/41/40 46/65/41 45/64/38
f 18/41/40 17/40/42 47/66/43 46/65/41
f 17/40/42 16/4/28 48/7/44 47/66/43
f 28/23/22 27/50/45 53/71/46 52/24/47
f 27/50/45 26/48/48 54/73/49 53/71/46
f 26/49/48 25/47/50 55/74/51 54/72/49
f 25/47/50 36/17/52 56/9/53 55/74/51
f 36/17/52 35/56/54 41/61/55 40/18/56
f 35/56/54 34/55/57 42/62/58 41/61/55
f 34/55/57 33/54/59 43/63/60 42/62/58
f 33/54/59 32/5/27 44/6/39 43/63/60
f 40/18/56 39/60/61 69/85/62 68/10/63
f 39/60/61 38/58/64 70/87/65 69/85/62
f 38/59/64 37/57/66 71/88/67 70/86/65
f 37/57/66 48/7/44 72/11/68 71/88/67
f 52/24/47 51/70/69 77/93/70 76/8/10
f 51/70/69 50/68/71 78/95/72 77/93/70
f 50/69/71 49/67/73 79/96/74 78/94/72
f 49/67/73 60/19/75 80/14/76 79/96/74
f 60/19/75 59/77/77 65/82/78 64/20/79
f 59/77/77 58/76/80 66/83/81 65/82/78
f 58/76/80 57/75/82 67/84/83 66/83/81
f 57/75/82 56/9/53 68/10/63 67/84/83
f 64/20/79 63/81/84 93/107/85 92/15/86
f 63/81/84 62/79/87 94/109/88 93/107/85
f 62/80/87 61/78/89 95/110/90 94/108/88
f 61/78/89 72/11/68 96/12/31 95/110/90
f 84/21/4 83/99/91 89/104/92 88/13/36
f 83/99/91 82/98/93 90/105/94 89/104/92
f 82/98/93 81/97/95 91/106/96 90/105/94
f 81/97/95 80/14/76 92/15/86 91/106/96
f 8/2/11 20/16/14 44/6/39 32/5/27
f 36/17/52 40/18/56 68/10/63 56/9/53
f 60/19/75 64/20/79 92/15/86 80/14/76
f 84/21/4 88/13/36 24/3/19 4/1/1
f 16/4/28 96/12/31 72/11/68 48/7/44
f 76/8/10 12/22/9 28/23/22 52/24/47
f 11/35/20 12/22/9 1/25/7 97/111/97
f 97/111/97 1/25/7 2/27/5 98/113/98
f 98/112/98 2/26/5 3/28/2 99/114/99
f 3/28/2 4/1/1 5/29/17 99/114/99
f 99/114/99 5/29/17 6/31/15 100/116/100
f 100/115/100 6/30/15 7/32/12 101/117/101
f 7/32/12 8/2/11 9/33/25 101/117/101
f 101/117/101 9/33/25 10/34/23 102/118/102
f 102/118/102 10/34/23 11/35/20 97/111/97
f 102/118/102 97/111/97 98/113/98 103/120/103
f 98/112/98 99/114/99 100/116/100 103/119/103
f 100/115/100 101/117/101 102/118/102 103/120/103
f 23/46/18 24/3/19 13/36/34 104/121/104
f 104/121/104 13/36/34 14/38/32 105/123/105
f 105/122/105 14/37/32 15/39/29 106/124/106
f 15/39/29 16/4/28 17/40/42 106/124/106
f 106/124/106 17/40/42 18/41/40 107/125/107
f 107/125/107 18/41/40 19/42/37 108/126/108
f 19/42/37 20/16/14 21/43/13 108/126/108
f 108/126/108 21/43/13 22/45/16 109/128/109
f 109/127/109 22/44/16 23/46/18 104/121/104
f 109/127/109 104/121/104 105/123/105 110/130/110
f 105/122/105 106/124/106 107/125/107 110/129/110
f 107/125/107 108/126/108 109/128/109 110/129/110
f 35/56/54 36/17/52 25/47/50 111/131/111
f 111/131/111 25/47/50 26/49/48 112/133/112
f 112/132/112 26/48/48 27/50/45 113/134/113
f 27/50/45 28/23/22 29/51/21 113/134/113
f 113/134/113 29/51/21 30/52/24 114/135/114
f 114/135/114 30/52/24 31/53/26 115/136/115
f 31/53/26 32/5/27 33/54/59 115/136/115
f 115/136/115 33/54/59 34/55/57 116/137/116
f 116/137/116 34/55/57 35/56/54 111/131/111
f 116/137/116 111/131/111 112/133/112 117/138/117
f 112/132/112 113/134/113 114/135/114 117/138/117
f 114/135/114 115/136/115 116/137/116 117/138/117
f 47/66/43 48/7/44 37/57/66 118/139/118
f 118/139/118 37/57/66 38/59/64 119/141/119
f 119/140/119 38/58/64 39/60/61 120/142/120
f 39/60/61 40/18/56 41/61/55 120/142/120
f 120/142/120 41/61/55 42/62/58 121/143/121
f 121/143/121 42/62/58 43/63/60 122/144/122
f 43/63/60 44/6/39 45/64/38 122/144/122
f 122/144/122 45/64/38 46/65/41 123/145/123
f 123/145/123 46/65/41 47/66/43 118/139/118
f 123/145/123 118/139/118 119/141/119 124/146/124
f 119/140/119 120/142/120 121/143/121 124/146/124
f 121/143/121 122/144/122 123/145/123 124/146/124
f 59/77/77 60/19/75 49/67/73 125/147/125
f 125/147/125 49/67/73 50/69/71 126/149/126
f 126/148/126 50/68/71 51/70/69 127/150/127
f 51/70/69 52/24/47 53/71/46 127/150/127
f 127/150/127 53/71/46 54/73/49 128/152/128
f 128/151/128 54/72/49 55/74/51 129/153/129
f 55/74/51 56/9/53 57/75/82 129/153/129
f 129/153/129 57/75/82 58/76/80 130/154/130
f 130/154/130 58/76/80 59/77/77 125/147/125
f 130/154/130 125/147/125 126/149/126 131/156/131
f 126/148/126 127/150/127 128/152/128 131/155/131
f 128/151/128 129/153/129 130/154/130 131/156/131
f 71/88/67 72/11/68 61/78/89 132/157/132
f 132/157/132 61/78/89 62/80/87 133/159/133
f 133/158/133 62/79/87 63/81/84 134/160/134
f 63/81/84 64/20/79 65/82/78 134/160/134
f 134/160/134 65/82/78 66/83/81 135/161/135
f 135/161/135 66/83/81 67/84/83 136/162/136
f 67/84/83 68/10/63 69/85/62 136/162/136
f 136/162/136 69/85/62 70/87/65 137/164/137
f 137/163/137 70/86/65 71/88/67 132/157/132
f 137/163/137 132/157/132 133/159/133 138/166/138
f 133/158/133 134/160/134 135/161/135 138/165/138
f 135/161/135 136/162/136 137/164/137 138/165/138
f 83/99/91 84/21/4 73/89/3 139/167/139
f 139/167/139 73/89/3 74/91/6 140/169/140
f 140/168/140 74/90/6 75/92/8 141/170/141
f 75/92/8 76/8/10 77/93/70 141/170/141
f 141/170/141 77/93/70 78/95/72 142/172/142
f 142/171/142 78/94/72 79/96/74 143/173/143
f 79/96/74 80/14/76 81/97/95 143/173/143
f 143/173/143 81/97/95 82/98/93 144/174/144
f 144/174/144 82/98/93 83/99/91 139/167/139
f 144/174/144 139/167/139 140/169/140 145/176/145
f 140/168/140 141/170/141 142/172/142 145/175/145
f 142/171/142 143/173/143 144/174/144 145/176/145
f 95/110/90 96/12/31 85/100/30 146/177/146
f 146/177/146 85/100/30 86/102/33 147/179/147
f 147/178/147 86/101/33 87/103/35 148/180/148
f 87/103/35 88/13/36 89/104/92 148/180/148
f 148/180/148 89/104/92 90/105/94 149/181/149
f 149/181/149 90/105/94 91/106/96 150/182/150
f 91/106/96 92/15/86 93/107/85 150/182/150
f 150/182/150 93/107/85 94/109/88 151/184/151
f 151/183/151 94/108/88 95/110/90 146/177/146
f 151/183/151 146/177/146 147/179/147 152/186/152
f 147/178/147 148/180/148 149/181/149 152/185/152
f 149/181/149 150/182/150 151/184/151 152/185/152
